<svg width="416" height="47" viewBox="0 0 416 47" fill="none" xmlns="http://www.w3.org/2000/svg">
<path d="M0 23.5357V0.321329H56.4326V23.5357H46.0439V8.65797H32.064V46.1729H21.8035V8.65797H10.3887V23.5357H0Z" fill="white"/>
<path d="M95.8538 46.1729V0.321329H134.266C139.012 0.321329 142.689 1.51839 145.297 3.9125C147.947 6.30661 149.272 9.94053 149.272 14.8143C149.272 18.9612 148.311 22.2104 146.387 24.5617C144.463 26.9131 141.727 28.388 138.178 28.9865L148.759 46.1729H137.088L127.277 29.3072H106.114V46.1729H95.8538ZM133.048 8.65797H106.114V20.9064L133.048 20.9705C134.929 20.9705 136.361 20.5003 137.345 19.5597C138.371 18.6192 138.884 17.0374 138.884 14.8143C138.884 12.5484 138.371 10.9666 137.345 10.0688C136.361 9.12824 134.929 8.65797 133.048 8.65797Z" fill="white"/>
<path d="M301.88 46.4935C293.415 46.4935 286.938 44.5483 282.449 40.6578C277.96 36.7247 275.715 30.9104 275.715 23.215C275.715 15.5624 277.96 9.76952 282.449 5.83634C286.938 1.90315 293.415 -0.0420619 301.88 0.000689531L324.966 0.128944V8.33733H302.585C297.027 8.33733 292.902 9.51301 290.208 11.8644C287.515 14.2157 286.168 17.9993 286.168 23.215C286.168 28.4308 287.515 32.2357 290.208 34.6298C292.902 36.9812 297.027 38.1568 302.585 38.1568H325.607V46.4935H301.88Z" fill="white"/>
<path d="M362.602 46.4935V38.1568L399.475 38.221C401.356 38.221 402.789 37.7935 403.772 36.9384C404.798 36.0406 405.311 34.6084 405.311 32.6418C405.311 30.6753 404.798 29.2644 403.772 28.4094C402.789 27.5116 401.356 27.0627 399.475 27.0627H376.518C371.772 27.0627 368.074 25.9298 365.423 23.6639C362.815 21.3553 361.512 17.9779 361.512 13.5317C361.512 9.08549 362.815 5.72946 365.423 3.4636C368.074 1.15499 371.772 0.000689531 376.518 0.000689531H412.557V8.33733L377.608 8.2732C375.769 8.2732 374.337 8.70072 373.311 9.55576C372.285 10.368 371.772 11.6934 371.772 13.5317C371.772 15.37 372.285 16.7167 373.311 17.5718C374.337 18.384 375.769 18.7902 377.608 18.7902H400.566C405.311 18.7902 408.988 19.9659 411.596 22.3172C414.246 24.6258 415.571 28.0674 415.571 32.6418C415.571 37.1736 414.246 40.6151 411.596 42.9664C408.988 45.3178 405.311 46.4935 400.566 46.4935H362.602Z" fill="white"/>
<path fill-rule="evenodd" clip-rule="evenodd" d="M205.841 0.321329L185.192 46.1729H196.35L200.711 36.4895L204.431 28.1529L213.344 8.33733H214.178L223.092 28.1529L226.811 36.4895L231.172 46.1729H242.33L221.681 0.321329H205.841Z" fill="white"/>
</svg>
